<svg width="414" height="896" viewBox="0 0 414 896" fill="none" xmlns="http://www.w3.org/2000/svg">
<g clip-path="url(#clip0_61_16)">
<rect width="414" height="896" fill="#F3F4F8"/>
<rect width="414" height="896" fill="url(#paint0_linear_61_16)"/>
<path d="M227.373 425.869V413.945V402.938L249 415.321V447.34L227.373 455.668V425.869Z" fill="white"/>
<path d="M186.627 428.621L186.627 442.38L186.627 448.797L165 456.752L165 387.876L186.627 379.548L186.627 428.621Z" fill="white"/>
<path d="M217.576 369L196.322 377.079V428.621V442.38V468.063L217.576 459.735V420.366V410.919V409.359V369Z" fill="white"/>
<path d="M111.607 516.063V492.889H120.396C122.857 492.889 124.703 493.436 125.934 494.529C127.164 495.623 127.779 497.117 127.779 499.012C127.779 500.145 127.516 501.121 126.988 501.942C126.461 502.742 125.768 503.367 124.908 503.817C125.885 504.168 126.744 504.832 127.486 505.809C128.229 506.766 128.6 507.938 128.6 509.324C128.6 511.258 127.975 512.869 126.725 514.158C125.494 515.428 123.766 516.063 121.539 516.063H111.607ZM115.475 512.781H120.865C121.9 512.781 122.779 512.479 123.502 511.873C124.244 511.268 124.615 510.418 124.615 509.324C124.615 508.289 124.273 507.44 123.59 506.776C122.926 506.111 121.988 505.779 120.777 505.779H115.475V512.781ZM115.475 502.527H120.016C121.129 502.527 122.037 502.264 122.74 501.736C123.443 501.19 123.795 500.379 123.795 499.305C123.795 498.348 123.492 497.596 122.887 497.049C122.301 496.483 121.383 496.199 120.133 496.199H115.475V502.527ZM131.705 509.94V499.158H135.426V509.471C135.426 512.108 136.354 513.426 138.209 513.426C139.322 513.426 140.191 512.957 140.816 512.02C141.441 511.063 141.754 509.93 141.754 508.621V499.158H145.445V516.063H141.871V514.1H141.842C141.568 514.705 141.041 515.272 140.26 515.799C139.498 516.326 138.541 516.59 137.389 516.59C136.705 516.59 136.051 516.483 135.426 516.268C134.82 516.072 134.225 515.75 133.639 515.301C133.053 514.832 132.584 514.139 132.232 513.221C131.881 512.303 131.705 511.209 131.705 509.94ZM148.521 507.596C148.521 504.822 149.195 502.635 150.543 501.033C151.91 499.432 153.639 498.631 155.729 498.631C156.725 498.631 157.584 498.875 158.307 499.363C159.049 499.832 159.615 500.389 160.006 501.033V492.127H163.697V516.063H160.123V513.865C159.771 514.608 159.186 515.252 158.365 515.799C157.564 516.326 156.676 516.59 155.699 516.59C154.82 516.59 153.971 516.424 153.15 516.092C152.33 515.76 151.559 515.252 150.836 514.569C150.133 513.885 149.566 512.947 149.137 511.756C148.727 510.545 148.521 509.158 148.521 507.596ZM152.33 507.596C152.33 509.432 152.682 510.867 153.385 511.902C154.107 512.918 155.055 513.426 156.227 513.426C157.359 513.426 158.277 512.908 158.98 511.873C159.703 510.819 160.064 509.393 160.064 507.596C160.064 505.858 159.713 504.461 159.01 503.406C158.326 502.332 157.398 501.795 156.227 501.795C154.996 501.795 154.039 502.322 153.355 503.377C152.672 504.432 152.33 505.838 152.33 507.596ZM170.816 507.303C170.816 509.022 171.148 510.36 171.812 511.317C172.496 512.274 173.395 512.752 174.508 512.752C175.602 512.752 176.48 512.283 177.145 511.346C177.809 510.408 178.141 509.051 178.141 507.274C178.141 505.535 177.809 504.188 177.145 503.231C176.48 502.274 175.611 501.795 174.537 501.795C173.404 501.795 172.496 502.293 171.812 503.289C171.148 504.285 170.816 505.623 170.816 507.303ZM167.037 507.332C167.037 504.695 167.691 502.586 169 501.004C170.309 499.422 171.988 498.631 174.039 498.631C175.074 498.631 175.943 498.895 176.646 499.422C177.369 499.93 177.877 500.496 178.17 501.121V499.158H181.861V513.719C181.861 516.902 181.236 519.256 179.986 520.779C178.756 522.322 176.852 523.094 174.273 523.094C171.441 523.094 169.244 522 167.682 519.813L170.143 518.113C171.275 519.442 172.672 520.106 174.332 520.106C175.406 520.106 176.295 519.695 176.998 518.875C177.701 518.055 178.082 516.981 178.141 515.652C178.18 514.871 178.199 514.227 178.199 513.719C177.828 514.344 177.271 514.871 176.529 515.301C175.787 515.711 174.996 515.916 174.156 515.916C172.027 515.916 170.309 515.135 169 513.572C167.691 511.99 167.037 509.91 167.037 507.332ZM184.879 507.537C184.879 504.822 185.621 502.664 187.105 501.063C188.609 499.442 190.494 498.631 192.76 498.631C194.986 498.631 196.822 499.442 198.268 501.063C199.713 502.684 200.436 504.793 200.436 507.391C200.436 507.899 200.406 508.397 200.348 508.885H188.629C188.629 510.174 189.01 511.287 189.771 512.225C190.553 513.143 191.617 513.602 192.965 513.602C193.902 513.602 194.723 513.377 195.426 512.928C196.148 512.459 196.695 511.863 197.066 511.141L200.172 512.195C199.625 513.445 198.736 514.49 197.506 515.33C196.275 516.17 194.742 516.59 192.906 516.59C190.543 516.59 188.609 515.77 187.105 514.129C185.621 512.488 184.879 510.291 184.879 507.537ZM188.688 506.277H196.656C196.656 504.988 196.314 503.895 195.631 502.996C194.947 502.078 193.99 501.619 192.76 501.619C191.529 501.619 190.543 502.088 189.801 503.026C189.078 503.944 188.707 505.027 188.688 506.277ZM201.959 502.322V499.158H204.566V494.149H208.258V499.158H212.125V502.322H208.258V510.643C208.258 511.444 208.414 512.02 208.727 512.371C209.059 512.723 209.557 512.899 210.221 512.899H212.154V516.063H209.752C206.295 516.063 204.566 514.344 204.566 510.906V502.322H201.959ZM215.641 516.063V492.889H224.43C226.891 492.889 228.736 493.436 229.967 494.529C231.197 495.623 231.812 497.117 231.812 499.012C231.812 500.145 231.549 501.121 231.021 501.942C230.494 502.742 229.801 503.367 228.941 503.817C229.918 504.168 230.777 504.832 231.52 505.809C232.262 506.766 232.633 507.938 232.633 509.324C232.633 511.258 232.008 512.869 230.758 514.158C229.527 515.428 227.799 516.063 225.572 516.063H215.641ZM219.508 512.781H224.898C225.934 512.781 226.812 512.479 227.535 511.873C228.277 511.268 228.648 510.418 228.648 509.324C228.648 508.289 228.307 507.44 227.623 506.776C226.959 506.111 226.021 505.779 224.811 505.779H219.508V512.781ZM219.508 502.527H224.049C225.162 502.527 226.07 502.264 226.773 501.736C227.477 501.19 227.828 500.379 227.828 499.305C227.828 498.348 227.525 497.596 226.92 497.049C226.334 496.483 225.416 496.199 224.166 496.199H219.508V502.527ZM235.738 509.94V499.158H239.459V509.471C239.459 512.108 240.387 513.426 242.242 513.426C243.355 513.426 244.225 512.957 244.85 512.02C245.475 511.063 245.787 509.93 245.787 508.621V499.158H249.479V516.063H245.904V514.1H245.875C245.602 514.705 245.074 515.272 244.293 515.799C243.531 516.326 242.574 516.59 241.422 516.59C240.738 516.59 240.084 516.483 239.459 516.268C238.854 516.072 238.258 515.75 237.672 515.301C237.086 514.832 236.617 514.139 236.266 513.221C235.914 512.303 235.738 511.209 235.738 509.94ZM252.555 507.596C252.555 504.822 253.229 502.635 254.576 501.033C255.943 499.432 257.672 498.631 259.762 498.631C260.758 498.631 261.617 498.875 262.34 499.363C263.082 499.832 263.648 500.389 264.039 501.033V492.127H267.73V516.063H264.156V513.865C263.805 514.608 263.219 515.252 262.398 515.799C261.598 516.326 260.709 516.59 259.732 516.59C258.854 516.59 258.004 516.424 257.184 516.092C256.363 515.76 255.592 515.252 254.869 514.569C254.166 513.885 253.6 512.947 253.17 511.756C252.76 510.545 252.555 509.158 252.555 507.596ZM256.363 507.596C256.363 509.432 256.715 510.867 257.418 511.902C258.141 512.918 259.088 513.426 260.26 513.426C261.393 513.426 262.311 512.908 263.014 511.873C263.736 510.819 264.098 509.393 264.098 507.596C264.098 505.858 263.746 504.461 263.043 503.406C262.359 502.332 261.432 501.795 260.26 501.795C259.029 501.795 258.072 502.322 257.389 503.377C256.705 504.432 256.363 505.838 256.363 507.596ZM270.982 507.596C270.982 504.822 271.656 502.635 273.004 501.033C274.371 499.432 276.1 498.631 278.189 498.631C279.186 498.631 280.045 498.875 280.768 499.363C281.51 499.832 282.076 500.389 282.467 501.033V492.127H286.158V516.063H282.584V513.865C282.232 514.608 281.646 515.252 280.826 515.799C280.025 516.326 279.137 516.59 278.16 516.59C277.281 516.59 276.432 516.424 275.611 516.092C274.791 515.76 274.02 515.252 273.297 514.569C272.594 513.885 272.027 512.947 271.598 511.756C271.188 510.545 270.982 509.158 270.982 507.596ZM274.791 507.596C274.791 509.432 275.143 510.867 275.846 511.902C276.568 512.918 277.516 513.426 278.688 513.426C279.82 513.426 280.738 512.908 281.441 511.873C282.164 510.819 282.525 509.393 282.525 507.596C282.525 505.858 282.174 504.461 281.471 503.406C280.787 502.332 279.859 501.795 278.688 501.795C277.457 501.795 276.5 502.322 275.816 503.377C275.133 504.432 274.791 505.838 274.791 507.596ZM288.561 499.158H292.633L295.533 507.86C296.021 509.461 296.393 510.76 296.646 511.756H296.764C296.861 511.404 297.223 510.106 297.848 507.86L300.514 499.158H304.557L297.555 518.289C296.93 520.008 296.119 521.219 295.123 521.922C294.146 522.625 292.926 522.977 291.461 522.977H290.318V519.871H290.846C291.725 519.871 292.438 519.676 292.984 519.285C293.551 518.914 294 518.26 294.332 517.322L294.889 515.652L288.561 499.158Z" fill="white"/>
</g>
<defs>
<linearGradient id="paint0_linear_61_16" x1="0" y1="0" x2="569.433" y2="113.044" gradientUnits="userSpaceOnUse">
<stop stop-color="#034888"/>
<stop offset="1" stop-color="#40C3F7"/>
</linearGradient>
<clipPath id="clip0_61_16">
<rect width="414" height="896" fill="white"/>
</clipPath>
</defs>
</svg>
